<svg class="sai-logo" xmlns="http://www.w3.org/2000/svg" viewBox="0 0 994 1431"><path fill="red" stroke="#000" stroke-width="5" d="M906.9 699.4c-26.2 0-52.4-.1-78.6-.1h-267c-1.2 0-2.4-.1-3.6-.4-4.4-.9-6.1.5-5.2 4.8.4 1.9.4 3.8.4 5.7v100c0 8.5 0 8.6 8.3 8.6 38.4.1 76.8.1 115.2 0 2.5 0 4.8.4 7.1 1.5l81.3 39.9c.5.2.8.6 1.7 1.2-8.3 4-16.2 7.9-24.2 11.7-19.7 9.5-39.4 19-59 28.5-1.2.6-2.4 1.1-3.9 1-39.4-.1-78.7-.1-118.1-.2-.5 0-1.1.1-1.6 0-6.7-.7-6.7-.7-6.7 6.3 0 92-.1 184.1-.1 276.1 0 10.7-.2 21.4.1 32.1.3 8.4-1.6 16.1-4.7 23.8-16 39.3-31.7 78.7-47.5 118.1-.4 1-.8 2-1.3 3-.4.9-.5 2.2-1.5 2.2-1.4.1-1.4-1.4-1.7-2.4-16.8-41.8-33.6-83.5-50.5-125.3-2.6-6.5-3-13.3-3-20.4.2-67.2.1-134.4.1-201.6V906.1c0-2.9-.2-4.7-4-4.7-34.7.2-69.4-.4-104.1.4-14.9.3-28-2.8-41.1-9.6-19.5-10.2-39.5-19.2-59.3-28.8-1.4-.7-3.7-.8-3.8-2.6-.1-2 2.3-2 3.6-2.7 24.4-12.4 48.7-24.7 73.1-37 4-2 8.3-3.2 12.9-3.1 37.9.1 75.7 0 113.6 0 8.8 0 8.9-.1 9-8.7.1-35 0-69.9.1-104.9 0-3.9-.7-5.2-5.1-5.2-114.8.1-229.6.1-344.4.1-3.7 0-4.5-1-4.5-4.6.2-30.9.2-61.7 0-92.6 0-3.7.8-4.8 4.7-4.8 104.4.1 208.7.1 313.1.1 3.9 0 7.8.5 11.9.8-.2-.8-.1-1.3-.3-1.5-18.1-14.6-33.4-32.1-49.8-48.3-38.1-37.7-75.9-75.8-113.9-113.6-2.5-2.5-2.6-3.7 0-6.3 79.8-79.6 159.5-159.4 239.2-239.1 1.1-1.1 2.6-2 3.2-3.7h1.6c.9 2.1 2.8 3.3 4.3 4.8 79.3 79.3 158.6 158.7 238 237.9 2.4 2.4 2.8 3.6.1 6.3-51.1 51.3-102.3 102.5-153.5 153.8-3.2 3.2-6.7 5.9-11.3 9.1h253c25.9 0 51.8-.1 77.7-.1v101.9zM499.1 295.2c-2.1-.2-3.1 1.5-4.4 2.7L367 425.6c-4.8 4.8-4.8 4.8.2 9.7l120.1 120.1c3.2 3.2 5.8 6.8 9.5 9.4 1.8 1.3 3.2 1.2 4.7-.2 3.1-3.1 6.2-6.1 9.3-9.2 40.4-40.4 80.9-80.8 121.3-121.3 3.4-3.4 3.4-4.2-.1-7.7-7-7-14-14-20.9-21L503.5 297.8c-1.3-1.1-2.3-2.8-4.4-2.6z"/><path fill="none" stroke="#000" stroke-width="5" d="M499.1 295.2c2.1-.2 3.1 1.5 4.3 2.7 35.9 35.9 71.8 71.7 107.6 107.6 7 7 14 14 20.9 21 3.5 3.5 3.5 4.3.1 7.7-40.4 40.4-80.8 80.9-121.3 121.3-3.1 3.1-6.2 6.2-9.3 9.2-1.5 1.5-2.9 1.5-4.7.2-3.7-2.6-6.3-6.3-9.5-9.4-40-40.1-80.1-80.1-120.1-120.1-4.9-4.9-4.9-4.9-.2-9.7L494.6 298c1.4-1.3 2.4-3 4.5-2.8z"/></svg>