<svg viewBox="0 0 596 674">
  <path d="M392 437c-32,31 -69,52 -115,58 12,-10 22,-22 31,-34 38,-13 65,-38 88,-70 -3,15 -4,31 -4,46zm-144 14l0 -352c-27,0 -52,6 -76,16 17,-18 38,-33 61,-42 1,0 10,0 15,0 0,-12 0,-29 0,-38 4,23 17,39 26,40 86,11 156,73 179,155l-87 56 88 56c-13,29 -20,62 -20,96 0,92 53,171 129,210 -31,-5 -62,-15 -91,-31 -4,-2 -14,-26 -19,-46 -2,8 -3,19 -2,33 -8,-5 -15,-11 -22,-17 -8,-10 -16,-22 -23,-34 -7,-12 -12,-24 -17,-36 7,11 20,23 41,35 1,-3 -1,-7 -2,-9 -14,-32 -21,-68 -21,-105 0,-30 5,-58 14,-85l-105 -67 105 -68c-24,-62 -80,-107 -147,-117l0 317c-7,12 -16,23 -26,33zm-26 81l0 -405c-34,5 -64,22 -88,45 -10,25 -15,50 -14,74 11,-38 39,-69 75,-85l0 301c-77,-23 -133,-94 -133,-178 0,-49 19,-94 50,-127 11,-24 26,-46 45,-65 -72,34 -121,107 -121,192 0,99 68,182 160,206 13,2 21,21 26,41z"/>
</svg>
